<svg width="25" height="24" viewBox="0 0 25 24" fill="none" xmlns="http://www.w3.org/2000/svg">
<g id="fluent:call-16-filled">
<path id="Vector" d="M10.6339 10.536L12.2449 9.06C12.6854 8.65563 12.995 8.12885 13.134 7.54727C13.273 6.96569 13.235 6.35584 13.0249 5.796L12.3379 3.9615C12.0813 3.27663 11.5731 2.71538 10.9171 2.39208C10.261 2.06879 9.5064 2.00779 8.80693 2.2215C6.23293 3.009 4.25443 5.4015 4.86343 8.2425C5.26393 10.1115 6.03043 12.4575 7.48243 14.9535C8.93743 17.4555 10.5994 19.3035 12.0244 20.6025C14.1754 22.56 17.2504 22.071 19.2289 20.226C19.7593 19.7315 20.0811 19.0534 20.1288 18.3298C20.1764 17.6063 19.9463 16.8918 19.4854 16.332L18.2254 14.802C17.8454 14.3393 17.3356 14.0009 16.7617 13.8304C16.1878 13.6598 15.5759 13.6649 15.0049 13.845L12.9229 14.5005C12.3853 13.9456 11.9141 13.33 11.5189 12.666C11.1375 11.9945 10.8403 11.2786 10.6339 10.5345V10.536Z" fill="#246BFD"/>
</g>
</svg>
