<svg width="20" height="20" viewBox="0 0 20 20" fill="none" xmlns="http://www.w3.org/2000/svg">
<g id="Iconly/Curved/Camera">
<g id="Group">
<path id="Vector" fill-rule="evenodd" clip-rule="evenodd" d="M12.8651 10.4151C12.8651 8.96772 11.6914 7.79404 10.244 7.79404C8.79667 7.79404 7.62299 8.96772 7.62299 10.4151C7.62299 11.8625 8.79667 13.0361 10.244 13.0361C11.6914 13.0361 12.8651 11.8625 12.8651 10.4151Z" stroke="#9E9E9E" stroke-width="1.5" stroke-linecap="round" stroke-linejoin="round"/>
<path id="Vector_2" fill-rule="evenodd" clip-rule="evenodd" d="M10.2438 16.8334C16.9482 16.8334 17.7464 14.8246 17.7464 10.472C17.7464 7.42113 17.3429 5.78867 14.8017 5.08692C14.5683 5.01324 14.3096 4.87289 14.0999 4.64218C13.7613 4.27113 13.514 3.13166 12.6964 2.78692C11.8789 2.44306 8.59554 2.45885 7.79115 2.78692C6.98764 3.11587 6.72624 4.27113 6.38764 4.64218C6.17799 4.87289 5.9201 5.01324 5.68589 5.08692C3.14466 5.78867 2.74115 7.42113 2.74115 10.472C2.74115 14.8246 3.5394 16.8334 10.2438 16.8334Z" stroke="#9E9E9E" stroke-width="1.5" stroke-linecap="round" stroke-linejoin="round"/>
<path id="Line" d="M14.3371 7.49998H14.3446" stroke="#9E9E9E" stroke-width="1.5" stroke-linecap="round" stroke-linejoin="round"/>
</g>
</g>
</svg>
